<svg width="400" height="577" viewBox="0 0 400 577" fill="none" xmlns="http://www.w3.org/2000/svg">
<path fill-rule="evenodd" clip-rule="evenodd" d="M0 288C0 390.843 77.6241 475.556 177.479 486.746L200.02 576.041L223.545 486.629C322.906 474.976 400 390.491 400 288C400 184.911 322.005 100.039 221.805 89.1749L200.02 0L179.143 89.0745C78.4876 99.5045 0 184.586 0 288ZM200 478C304.934 478 390 392.934 390 288C390 183.066 304.934 98 200 98C95.0659 98 10 183.066 10 288C10 392.934 95.0659 478 200 478Z" fill="#1A0F0F"/>
<mask id="mask0" mask-type="alpha" maskUnits="userSpaceOnUse" x="10" y="98" width="380" height="380">
<circle cx="200" cy="288" r="190" fill="#C4C4C4"/>
</mask>
<g mask="url(#mask0)">
<path d="M273.48 329.163H253.54L264.659 292.679L273.48 283.859M273.48 329.163L267.867 343.196L273.48 344.293M273.48 329.163L280.697 330.238M302.748 350.012C307.292 355.625 347.559 418.467 347.559 418.467M302.748 350.012L273.48 344.293M302.748 350.012L288.716 356.427M311.168 334.776L367.184 415.919M311.168 334.776L280.697 330.238M311.168 334.776L335.625 318.739M273.48 344.293L267.867 354.031L276.287 356.427M288.716 356.427L303.722 419.997L332.819 455.328M288.716 356.427H276.287M276.287 356.427L263.483 369.657L253.54 416.967L285.107 465.179M280.697 330.238V318.739H267.867M273.48 283.859L263.483 273.034L300.744 260.204L335.625 280.25L300.744 275.84L273.48 283.859ZM273.48 268.623L285.107 242.162M285.107 242.162L319.989 232.54H370.185L378.825 243.766L359.185 247.031M285.107 242.162L327.606 208.484L387.747 226.526L422.791 273.034M285.107 242.162L311.168 200.065L372.912 192.046L421.025 220.111L476.524 305.308M285.107 242.162L280.697 200.065L332.819 172L436.26 200.065L489.986 283.859M468.368 324.352L422.791 273.034M359.185 247.031L394.563 292.679M359.185 247.031L351.685 257.531M394.563 292.679V275.84L408.195 268.623L422.791 273.034M394.563 292.679V312.725M422.791 273.034L426.237 296.688M426.237 296.688L422.791 307.112L412.204 318.739M426.237 296.688L457.51 334.776M417.015 286.264L412.204 280.25L403.785 283.859V296.688L408.195 301.9V307.112L401.89 312.725M351.685 257.531V275.84V292.679M351.685 257.531L394.563 312.725M394.563 312.725V331.036L398.973 337.984H408.195V324.352L412.204 318.739M412.204 318.739L439.313 356.427M351.685 292.679L398.973 373.265L452.699 386.095M351.685 292.679L335.625 318.739M335.625 318.739L372.912 386.095L408.195 403.335" stroke="#1A0F0F" stroke-width="8.15331"/>
<path d="M124.768 347.219L270.848 349.597" stroke="#1A0F0F" stroke-width="8.15331"/>
<path fill-rule="evenodd" clip-rule="evenodd" d="M164.15 308.491C164.167 308.04 164.175 307.587 164.175 307.132C164.175 287.244 148.053 271.121 128.165 271.121C108.277 271.121 92.1543 287.244 92.1543 307.132C92.1543 326.336 107.186 342.028 126.126 343.085V351.249C102.681 350.184 84.001 330.839 84.001 307.132C84.001 282.741 103.774 262.968 128.165 262.968C152.556 262.968 172.329 282.741 172.329 307.132C172.329 307.586 172.322 308.039 172.308 308.491H164.15Z" fill="#1A0F0F"/>
<path fill-rule="evenodd" clip-rule="evenodd" d="M180.397 316.387C178.316 315.251 175.928 314.606 173.39 314.606C165.298 314.606 158.738 321.165 158.738 329.257C158.738 336.995 164.737 343.331 172.337 343.871V348.664H185.371C181.889 350.818 177.784 352.062 173.39 352.062C160.795 352.062 150.585 341.852 150.585 329.257C150.585 316.662 160.795 306.452 173.39 306.452C181.209 306.452 188.11 310.388 192.218 316.387H180.397Z" fill="#1A0F0F"/>
<path d="M123.407 354.1L269.487 351.722" stroke="#1A0F0F" stroke-width="8.15331"/>
<path fill-rule="evenodd" clip-rule="evenodd" d="M153.266 419.919C146.78 426.227 137.926 430.111 128.164 430.111C108.276 430.111 92.1533 413.988 92.1533 394.1C92.1533 374.896 107.186 359.203 126.126 358.147V350.616H135.923C133.404 350.17 130.811 349.937 128.164 349.937C103.773 349.937 84 369.709 84 394.1C84 418.491 103.773 438.264 128.164 438.264C142.915 438.264 155.978 431.032 163.998 419.919H153.266Z" fill="#1A0F0F"/>
<path fill-rule="evenodd" clip-rule="evenodd" d="M219.354 388.665C216.663 390.385 213.465 391.383 210.034 391.383C200.465 391.383 192.708 383.626 192.708 374.057C192.708 364.829 199.922 357.286 209.018 356.76V352.654H223.864C219.881 350.075 215.132 348.578 210.034 348.578C195.962 348.578 184.555 359.985 184.555 374.057C184.555 388.129 195.962 399.536 210.034 399.536C218.671 399.536 226.304 395.238 230.912 388.665H219.354Z" fill="#1A0F0F"/>
<path fill-rule="evenodd" clip-rule="evenodd" d="M187.954 357.48C182.695 354.001 176.389 351.975 169.61 351.975C151.223 351.975 136.317 366.881 136.317 385.268C136.317 403.655 151.223 418.56 169.61 418.56C184.939 418.56 197.848 408.2 201.718 394.1H210.113C206.065 412.747 189.469 426.714 169.61 426.714C146.72 426.714 128.164 408.158 128.164 385.268C128.164 362.378 146.72 343.822 169.61 343.822C180.753 343.822 190.868 348.219 198.316 355.372H187.954V357.48Z" fill="#1A0F0F"/>
</g>
</svg>
